<mxfile host="Electron" modified="2024-01-28T18:14:44.257Z" agent="Mozilla/5.0 (Windows NT 10.0; Win64; x64) AppleWebKit/537.36 (KHTML, like Gecko) draw.io/22.1.21 Chrome/120.0.6099.109 Electron/28.1.0 Safari/537.36" etag="KcNk4qfL997cB9Io9Xlw" version="22.1.21" type="device" pages="2">
  <diagram id="qX8UqvS2kE64xxPu2gzD" name="Page-1">
    <mxGraphModel dx="880" dy="572" grid="1" gridSize="10" guides="1" tooltips="1" connect="1" arrows="1" fold="1" page="1" pageScale="1" pageWidth="827" pageHeight="1169" math="0" shadow="0">
      <root>
        <mxCell id="0" />
        <mxCell id="1" parent="0" />
        <mxCell id="rntrfY47Hv8t6kBeSZ6b-1" value="Consulter plannir" style="ellipse;whiteSpace=wrap;html=1;" vertex="1" parent="1">
          <mxGeometry x="330" y="30" width="120" height="80" as="geometry" />
        </mxCell>
        <mxCell id="rntrfY47Hv8t6kBeSZ6b-2" value="Utilisateur salle" style="shape=umlActor;verticalLabelPosition=bottom;verticalAlign=top;html=1;outlineConnect=0;" vertex="1" parent="1">
          <mxGeometry x="70" y="90" width="30" height="50" as="geometry" />
        </mxCell>
        <mxCell id="rntrfY47Hv8t6kBeSZ6b-3" value="Consulteur recap horaire enseignant" style="ellipse;whiteSpace=wrap;html=1;" vertex="1" parent="1">
          <mxGeometry x="450" y="80" width="260" height="80" as="geometry" />
        </mxCell>
        <mxCell id="rntrfY47Hv8t6kBeSZ6b-4" value="Reservation" style="ellipse;whiteSpace=wrap;html=1;" vertex="1" parent="1">
          <mxGeometry x="210" y="220" width="120" height="80" as="geometry" />
        </mxCell>
        <mxCell id="rntrfY47Hv8t6kBeSZ6b-5" value="Reservation salle&amp;nbsp;" style="ellipse;whiteSpace=wrap;html=1;" vertex="1" parent="1">
          <mxGeometry x="600" y="190" width="120" height="80" as="geometry" />
        </mxCell>
        <mxCell id="rntrfY47Hv8t6kBeSZ6b-6" value="Reserver materiel" style="ellipse;whiteSpace=wrap;html=1;" vertex="1" parent="1">
          <mxGeometry x="540" y="290" width="120" height="80" as="geometry" />
        </mxCell>
        <mxCell id="rntrfY47Hv8t6kBeSZ6b-7" value="Reserver video" style="ellipse;whiteSpace=wrap;html=1;" vertex="1" parent="1">
          <mxGeometry x="500" y="430" width="120" height="80" as="geometry" />
        </mxCell>
        <mxCell id="rntrfY47Hv8t6kBeSZ6b-8" value="Reserver portable&amp;nbsp;" style="ellipse;whiteSpace=wrap;html=1;" vertex="1" parent="1">
          <mxGeometry x="680" y="420" width="120" height="80" as="geometry" />
        </mxCell>
        <mxCell id="rntrfY47Hv8t6kBeSZ6b-9" value="Enseignant" style="shape=umlActor;verticalLabelPosition=bottom;verticalAlign=top;html=1;outlineConnect=0;" vertex="1" parent="1">
          <mxGeometry x="80" y="260" width="50" height="60" as="geometry" />
        </mxCell>
        <mxCell id="rntrfY47Hv8t6kBeSZ6b-10" value="Responsable formation" style="shape=umlActor;verticalLabelPosition=bottom;verticalAlign=top;html=1;outlineConnect=0;" vertex="1" parent="1">
          <mxGeometry x="70" y="420" width="50" height="70" as="geometry" />
        </mxCell>
        <mxCell id="rntrfY47Hv8t6kBeSZ6b-11" value="verification disponible&amp;nbsp;" style="ellipse;whiteSpace=wrap;html=1;" vertex="1" parent="1">
          <mxGeometry x="240" y="370" width="140" height="80" as="geometry" />
        </mxCell>
        <mxCell id="rntrfY47Hv8t6kBeSZ6b-12" value="Editeur recap formation&amp;nbsp;" style="ellipse;whiteSpace=wrap;html=1;" vertex="1" parent="1">
          <mxGeometry x="150" y="560" width="170" height="80" as="geometry" />
        </mxCell>
        <mxCell id="rntrfY47Hv8t6kBeSZ6b-13" value="" style="endArrow=classic;html=1;rounded=0;exitX=0;exitY=0.5;exitDx=0;exitDy=0;" edge="1" parent="1" source="rntrfY47Hv8t6kBeSZ6b-5">
          <mxGeometry width="50" height="50" relative="1" as="geometry">
            <mxPoint x="390" y="270" as="sourcePoint" />
            <mxPoint x="330" y="250" as="targetPoint" />
          </mxGeometry>
        </mxCell>
        <mxCell id="rntrfY47Hv8t6kBeSZ6b-14" value="" style="endArrow=classic;html=1;rounded=0;entryX=0.933;entryY=0.75;entryDx=0;entryDy=0;entryPerimeter=0;" edge="1" parent="1" source="rntrfY47Hv8t6kBeSZ6b-6" target="rntrfY47Hv8t6kBeSZ6b-4">
          <mxGeometry width="50" height="50" relative="1" as="geometry">
            <mxPoint x="610" y="240" as="sourcePoint" />
            <mxPoint x="340" y="280" as="targetPoint" />
          </mxGeometry>
        </mxCell>
        <mxCell id="rntrfY47Hv8t6kBeSZ6b-15" value="" style="endArrow=classic;html=1;rounded=0;exitX=0.25;exitY=0;exitDx=0;exitDy=0;exitPerimeter=0;" edge="1" parent="1" source="rntrfY47Hv8t6kBeSZ6b-8" target="rntrfY47Hv8t6kBeSZ6b-6">
          <mxGeometry width="50" height="50" relative="1" as="geometry">
            <mxPoint x="652" y="410" as="sourcePoint" />
            <mxPoint x="440" y="370" as="targetPoint" />
          </mxGeometry>
        </mxCell>
        <mxCell id="rntrfY47Hv8t6kBeSZ6b-16" value="" style="endArrow=classic;html=1;rounded=0;exitX=0.608;exitY=0.013;exitDx=0;exitDy=0;exitPerimeter=0;entryX=0.4;entryY=0.988;entryDx=0;entryDy=0;entryPerimeter=0;" edge="1" parent="1" source="rntrfY47Hv8t6kBeSZ6b-7" target="rntrfY47Hv8t6kBeSZ6b-6">
          <mxGeometry width="50" height="50" relative="1" as="geometry">
            <mxPoint x="660" y="439" as="sourcePoint" />
            <mxPoint x="588" y="380" as="targetPoint" />
          </mxGeometry>
        </mxCell>
        <mxCell id="rntrfY47Hv8t6kBeSZ6b-17" value="" style="endArrow=classic;html=1;rounded=0;entryX=0.393;entryY=-0.012;entryDx=0;entryDy=0;entryPerimeter=0;exitX=0.667;exitY=1.025;exitDx=0;exitDy=0;exitPerimeter=0;" edge="1" parent="1" source="rntrfY47Hv8t6kBeSZ6b-4" target="rntrfY47Hv8t6kBeSZ6b-11">
          <mxGeometry relative="1" as="geometry">
            <mxPoint x="360" y="360" as="sourcePoint" />
            <mxPoint x="460" y="360" as="targetPoint" />
          </mxGeometry>
        </mxCell>
        <mxCell id="rntrfY47Hv8t6kBeSZ6b-18" value="&amp;lt;&amp;lt;include&amp;gt;&amp;gt;" style="edgeLabel;resizable=0;html=1;align=center;verticalAlign=middle;rotation=0;" connectable="0" vertex="1" parent="rntrfY47Hv8t6kBeSZ6b-17">
          <mxGeometry relative="1" as="geometry" />
        </mxCell>
        <mxCell id="rntrfY47Hv8t6kBeSZ6b-19" style="edgeStyle=none;rounded=0;orthogonalLoop=1;jettySize=auto;html=1;entryX=0.579;entryY=0.013;entryDx=0;entryDy=0;entryPerimeter=0;" edge="1" parent="1" source="rntrfY47Hv8t6kBeSZ6b-11" target="rntrfY47Hv8t6kBeSZ6b-11">
          <mxGeometry relative="1" as="geometry" />
        </mxCell>
        <mxCell id="rntrfY47Hv8t6kBeSZ6b-20" value="" style="endArrow=none;html=1;rounded=0;" edge="1" parent="1" source="rntrfY47Hv8t6kBeSZ6b-12">
          <mxGeometry width="50" height="50" relative="1" as="geometry">
            <mxPoint x="190" y="560" as="sourcePoint" />
            <mxPoint x="130" y="510" as="targetPoint" />
          </mxGeometry>
        </mxCell>
        <mxCell id="rntrfY47Hv8t6kBeSZ6b-21" value="" style="endArrow=classic;html=1;rounded=0;exitX=0.5;exitY=0;exitDx=0;exitDy=0;exitPerimeter=0;" edge="1" parent="1" source="rntrfY47Hv8t6kBeSZ6b-10">
          <mxGeometry width="50" height="50" relative="1" as="geometry">
            <mxPoint x="100" y="420" as="sourcePoint" />
            <mxPoint x="100" y="340" as="targetPoint" />
          </mxGeometry>
        </mxCell>
        <mxCell id="rntrfY47Hv8t6kBeSZ6b-22" value="" style="endArrow=none;html=1;rounded=0;entryX=0;entryY=0.5;entryDx=0;entryDy=0;exitX=0.5;exitY=0;exitDx=0;exitDy=0;exitPerimeter=0;" edge="1" parent="1" source="rntrfY47Hv8t6kBeSZ6b-9" target="rntrfY47Hv8t6kBeSZ6b-3">
          <mxGeometry width="50" height="50" relative="1" as="geometry">
            <mxPoint x="270" y="200" as="sourcePoint" />
            <mxPoint x="320" y="150" as="targetPoint" />
            <Array as="points">
              <mxPoint x="370" y="120" />
            </Array>
          </mxGeometry>
        </mxCell>
        <mxCell id="rntrfY47Hv8t6kBeSZ6b-23" value="" style="endArrow=none;html=1;rounded=0;entryX=0;entryY=0.5;entryDx=0;entryDy=0;exitX=1;exitY=0.3333333333333333;exitDx=0;exitDy=0;exitPerimeter=0;" edge="1" parent="1" source="rntrfY47Hv8t6kBeSZ6b-2" target="rntrfY47Hv8t6kBeSZ6b-1">
          <mxGeometry width="50" height="50" relative="1" as="geometry">
            <mxPoint x="210" y="160" as="sourcePoint" />
            <mxPoint x="260" y="110" as="targetPoint" />
          </mxGeometry>
        </mxCell>
        <mxCell id="rntrfY47Hv8t6kBeSZ6b-24" value="" style="endArrow=classic;html=1;rounded=0;" edge="1" parent="1">
          <mxGeometry width="50" height="50" relative="1" as="geometry">
            <mxPoint x="100" y="260" as="sourcePoint" />
            <mxPoint x="90" y="160" as="targetPoint" />
          </mxGeometry>
        </mxCell>
      </root>
    </mxGraphModel>
  </diagram>
  <diagram id="dtba6PQJG5DobaJJVQpd" name="Page-2">
    <mxGraphModel dx="1280" dy="972" grid="0" gridSize="10" guides="1" tooltips="1" connect="1" arrows="1" fold="1" page="0" pageScale="1" pageWidth="827" pageHeight="1169" math="0" shadow="0">
      <root>
        <mxCell id="0" />
        <mxCell id="1" parent="0" />
        <mxCell id="td2TFSnO3F3tmxSQG4Zr-1" value="correction éventuelle" style="ellipse;whiteSpace=wrap;html=1;labelBackgroundColor=none;" parent="1" vertex="1">
          <mxGeometry x="20" y="50" width="120" height="80" as="geometry" />
        </mxCell>
        <mxCell id="td2TFSnO3F3tmxSQG4Zr-2" value="vérification saisie cahier" style="ellipse;whiteSpace=wrap;html=1;labelBackgroundColor=none;" parent="1" vertex="1">
          <mxGeometry x="20" y="180" width="150" height="80" as="geometry" />
        </mxCell>
        <mxCell id="td2TFSnO3F3tmxSQG4Zr-3" value="consultation de glossaire" style="ellipse;whiteSpace=wrap;html=1;labelBackgroundColor=none;" parent="1" vertex="1">
          <mxGeometry x="-10" y="410" width="160" height="80" as="geometry" />
        </mxCell>
        <mxCell id="td2TFSnO3F3tmxSQG4Zr-4" value="saisie BDD" style="ellipse;whiteSpace=wrap;html=1;labelBackgroundColor=none;" parent="1" vertex="1">
          <mxGeometry x="240" width="120" height="80" as="geometry" />
        </mxCell>
        <mxCell id="td2TFSnO3F3tmxSQG4Zr-5" value="operation phyto" style="ellipse;whiteSpace=wrap;html=1;labelBackgroundColor=none;" parent="1" vertex="1">
          <mxGeometry x="155" y="521" width="120" height="80" as="geometry" />
        </mxCell>
        <mxCell id="td2TFSnO3F3tmxSQG4Zr-6" value="saisie opération" style="ellipse;whiteSpace=wrap;html=1;labelBackgroundColor=none;" parent="1" vertex="1">
          <mxGeometry x="253" y="367" width="120" height="80" as="geometry" />
        </mxCell>
        <mxCell id="td2TFSnO3F3tmxSQG4Zr-8" value="identification&amp;nbsp;" style="ellipse;whiteSpace=wrap;html=1;labelBackgroundColor=none;" parent="1" vertex="1">
          <mxGeometry x="540" y="20" width="120" height="80" as="geometry" />
        </mxCell>
        <mxCell id="td2TFSnO3F3tmxSQG4Zr-9" value="etat terravitis" style="ellipse;whiteSpace=wrap;html=1;labelBackgroundColor=none;" parent="1" vertex="1">
          <mxGeometry x="630" y="120" width="120" height="80" as="geometry" />
        </mxCell>
        <mxCell id="td2TFSnO3F3tmxSQG4Zr-10" value="Notification saisie ok" style="ellipse;whiteSpace=wrap;html=1;labelBackgroundColor=none;" parent="1" vertex="1">
          <mxGeometry x="670" y="240" width="120" height="80" as="geometry" />
        </mxCell>
        <mxCell id="td2TFSnO3F3tmxSQG4Zr-11" value="vérification données BDD" style="ellipse;whiteSpace=wrap;html=1;labelBackgroundColor=none;" parent="1" vertex="1">
          <mxGeometry x="580" y="330" width="150" height="80" as="geometry" />
        </mxCell>
        <mxCell id="td2TFSnO3F3tmxSQG4Zr-12" value="correction données BDD" style="ellipse;whiteSpace=wrap;html=1;labelBackgroundColor=none;" parent="1" vertex="1">
          <mxGeometry x="470" y="410" width="150" height="80" as="geometry" />
        </mxCell>
        <mxCell id="td2TFSnO3F3tmxSQG4Zr-13" value="analyse résultat" style="ellipse;whiteSpace=wrap;html=1;labelBackgroundColor=none;" parent="1" vertex="1">
          <mxGeometry x="510" y="680" width="120" height="80" as="geometry" />
        </mxCell>
        <mxCell id="td2TFSnO3F3tmxSQG4Zr-14" value="rédaction synthése" style="ellipse;whiteSpace=wrap;html=1;labelBackgroundColor=none;" parent="1" vertex="1">
          <mxGeometry x="730" y="584" width="120" height="80" as="geometry" />
        </mxCell>
        <mxCell id="td2TFSnO3F3tmxSQG4Zr-15" value="Chef exploitation" style="shape=umlActor;verticalLabelPosition=bottom;verticalAlign=top;html=1;outlineConnect=0;labelBackgroundColor=none;" parent="1" vertex="1">
          <mxGeometry x="440" y="130" width="30" height="60" as="geometry" />
        </mxCell>
        <mxCell id="td2TFSnO3F3tmxSQG4Zr-16" value="ouvrier Agricole" style="shape=umlActor;verticalLabelPosition=bottom;verticalAlign=top;html=1;outlineConnect=0;labelBackgroundColor=none;" parent="1" vertex="1">
          <mxGeometry x="70" y="320" width="30" height="60" as="geometry" />
        </mxCell>
        <mxCell id="td2TFSnO3F3tmxSQG4Zr-17" value="chercheur" style="shape=umlActor;verticalLabelPosition=bottom;verticalAlign=top;html=1;outlineConnect=0;labelBackgroundColor=none;" parent="1" vertex="1">
          <mxGeometry x="725" y="450" width="30" height="60" as="geometry" />
        </mxCell>
        <mxCell id="ILsBCG3r65_bVUNIyN4I-3" value="" style="endArrow=none;html=1;rounded=0;hachureGap=4;fontFamily=Architects Daughter;fontSource=https%3A%2F%2Ffonts.googleapis.com%2Fcss%3Ffamily%3DArchitects%2BDaughter;fontSize=16;fontColor=#1D3557;exitX=1;exitY=0.5;exitDx=0;exitDy=0;" parent="1" source="td2TFSnO3F3tmxSQG4Zr-1" target="td2TFSnO3F3tmxSQG4Zr-15" edge="1">
          <mxGeometry width="50" height="50" relative="1" as="geometry">
            <mxPoint x="216" y="130" as="sourcePoint" />
            <mxPoint x="266" y="80" as="targetPoint" />
          </mxGeometry>
        </mxCell>
        <mxCell id="ILsBCG3r65_bVUNIyN4I-4" value="" style="endArrow=none;html=1;rounded=0;hachureGap=4;fontFamily=Architects Daughter;fontSource=https%3A%2F%2Ffonts.googleapis.com%2Fcss%3Ffamily%3DArchitects%2BDaughter;fontSize=16;fontColor=#1D3557;exitX=0.941;exitY=0.824;exitDx=0;exitDy=0;exitPerimeter=0;" parent="1" source="td2TFSnO3F3tmxSQG4Zr-4" edge="1">
          <mxGeometry width="50" height="50" relative="1" as="geometry">
            <mxPoint x="382" y="110" as="sourcePoint" />
            <mxPoint x="446" y="128" as="targetPoint" />
          </mxGeometry>
        </mxCell>
        <mxCell id="ILsBCG3r65_bVUNIyN4I-5" value="" style="endArrow=none;html=1;rounded=0;hachureGap=4;fontFamily=Architects Daughter;fontSource=https%3A%2F%2Ffonts.googleapis.com%2Fcss%3Ffamily%3DArchitects%2BDaughter;fontSize=16;fontColor=#1D3557;exitX=1;exitY=0.388;exitDx=0;exitDy=0;exitPerimeter=0;" parent="1" source="td2TFSnO3F3tmxSQG4Zr-2" edge="1">
          <mxGeometry width="50" height="50" relative="1" as="geometry">
            <mxPoint x="275" y="226" as="sourcePoint" />
            <mxPoint x="436" y="155" as="targetPoint" />
          </mxGeometry>
        </mxCell>
        <mxCell id="ILsBCG3r65_bVUNIyN4I-6" value="" style="endArrow=classic;html=1;rounded=0;hachureGap=4;fontFamily=Architects Daughter;fontSource=https%3A%2F%2Ffonts.googleapis.com%2Fcss%3Ffamily%3DArchitects%2BDaughter;fontSize=16;fontColor=#1D3557;" parent="1" target="td2TFSnO3F3tmxSQG4Zr-16" edge="1">
          <mxGeometry width="50" height="50" relative="1" as="geometry">
            <mxPoint x="410" y="209" as="sourcePoint" />
            <mxPoint x="342" y="231" as="targetPoint" />
          </mxGeometry>
        </mxCell>
        <mxCell id="ILsBCG3r65_bVUNIyN4I-7" value="" style="endArrow=none;html=1;rounded=0;hachureGap=4;fontFamily=Architects Daughter;fontSource=https%3A%2F%2Ffonts.googleapis.com%2Fcss%3Ffamily%3DArchitects%2BDaughter;fontSize=16;fontColor=#1D3557;exitX=0.222;exitY=0.047;exitDx=0;exitDy=0;exitPerimeter=0;" parent="1" source="td2TFSnO3F3tmxSQG4Zr-6" edge="1">
          <mxGeometry width="50" height="50" relative="1" as="geometry">
            <mxPoint x="204" y="402" as="sourcePoint" />
            <mxPoint x="208" y="351" as="targetPoint" />
          </mxGeometry>
        </mxCell>
        <mxCell id="ILsBCG3r65_bVUNIyN4I-8" value="" style="endArrow=none;html=1;rounded=0;hachureGap=4;fontFamily=Architects Daughter;fontSource=https%3A%2F%2Ffonts.googleapis.com%2Fcss%3Ffamily%3DArchitects%2BDaughter;fontSize=16;fontColor=#1D3557;" parent="1" edge="1">
          <mxGeometry width="50" height="50" relative="1" as="geometry">
            <mxPoint x="102" y="368" as="sourcePoint" />
            <mxPoint x="211" y="349.47" as="targetPoint" />
          </mxGeometry>
        </mxCell>
        <mxCell id="ynNQW_KcsPk511566RT1-2" value="" style="endArrow=classic;html=1;rounded=0;entryX=0.289;entryY=0.96;entryDx=0;entryDy=0;entryPerimeter=0;" parent="1" target="td2TFSnO3F3tmxSQG4Zr-6" edge="1">
          <mxGeometry width="50" height="50" relative="1" as="geometry">
            <mxPoint x="232" y="521" as="sourcePoint" />
            <mxPoint x="282" y="471" as="targetPoint" />
          </mxGeometry>
        </mxCell>
        <mxCell id="ynNQW_KcsPk511566RT1-3" value="" style="endArrow=classic;html=1;rounded=0;entryX=0.789;entryY=0.907;entryDx=0;entryDy=0;entryPerimeter=0;exitX=0.362;exitY=0.035;exitDx=0;exitDy=0;exitPerimeter=0;" parent="1" source="td2TFSnO3F3tmxSQG4Zr-7" target="td2TFSnO3F3tmxSQG4Zr-6" edge="1">
          <mxGeometry width="50" height="50" relative="1" as="geometry">
            <mxPoint x="332" y="517" as="sourcePoint" />
            <mxPoint x="382" y="467" as="targetPoint" />
          </mxGeometry>
        </mxCell>
        <mxCell id="HknMEqGt49eJzjjqw019-1" value="" style="html=1;verticalAlign=bottom;endArrow=open;dashed=1;endSize=8;curved=0;rounded=0;exitX=1;exitY=0.5;exitDx=0;exitDy=0;" parent="1" source="td2TFSnO3F3tmxSQG4Zr-3" edge="1">
          <mxGeometry x="0.586" y="-8" relative="1" as="geometry">
            <mxPoint x="235" y="440" as="sourcePoint" />
            <mxPoint x="252" y="410" as="targetPoint" />
            <Array as="points" />
            <mxPoint as="offset" />
          </mxGeometry>
        </mxCell>
        <mxCell id="HknMEqGt49eJzjjqw019-2" value="&amp;lt;&amp;lt;extend&amp;gt;&amp;gt;" style="edgeLabel;html=1;align=center;verticalAlign=middle;resizable=0;points=[];" parent="HknMEqGt49eJzjjqw019-1" vertex="1" connectable="0">
          <mxGeometry x="0.0452" y="-3" relative="1" as="geometry">
            <mxPoint x="1" as="offset" />
          </mxGeometry>
        </mxCell>
        <mxCell id="HknMEqGt49eJzjjqw019-3" value="" style="endArrow=none;html=1;rounded=0;exitX=0.63;exitY=-0.005;exitDx=0;exitDy=0;exitPerimeter=0;" parent="1" source="td2TFSnO3F3tmxSQG4Zr-13" edge="1">
          <mxGeometry width="50" height="50" relative="1" as="geometry">
            <mxPoint x="633" y="573" as="sourcePoint" />
            <mxPoint x="710" y="536" as="targetPoint" />
          </mxGeometry>
        </mxCell>
        <mxCell id="HknMEqGt49eJzjjqw019-4" value="" style="endArrow=none;html=1;rounded=0;exitX=0.595;exitY=-0.016;exitDx=0;exitDy=0;exitPerimeter=0;" parent="1" source="td2TFSnO3F3tmxSQG4Zr-14" edge="1">
          <mxGeometry width="50" height="50" relative="1" as="geometry">
            <mxPoint x="817" y="544" as="sourcePoint" />
            <mxPoint x="763" y="533" as="targetPoint" />
          </mxGeometry>
        </mxCell>
        <mxCell id="HknMEqGt49eJzjjqw019-6" value="" style="endArrow=none;html=1;rounded=0;" parent="1" edge="1">
          <mxGeometry width="50" height="50" relative="1" as="geometry">
            <mxPoint x="593" y="532" as="sourcePoint" />
            <mxPoint x="718" y="495" as="targetPoint" />
          </mxGeometry>
        </mxCell>
        <mxCell id="HknMEqGt49eJzjjqw019-8" value="" style="endArrow=none;html=1;rounded=0;" parent="1" target="td2TFSnO3F3tmxSQG4Zr-7" edge="1">
          <mxGeometry width="50" height="50" relative="1" as="geometry">
            <mxPoint x="386" y="588" as="sourcePoint" />
            <mxPoint x="436" y="538" as="targetPoint" />
          </mxGeometry>
        </mxCell>
        <mxCell id="td2TFSnO3F3tmxSQG4Zr-7" value="autre opération&amp;nbsp;" style="ellipse;whiteSpace=wrap;html=1;labelBackgroundColor=none;" parent="1" vertex="1">
          <mxGeometry x="309" y="521" width="120" height="80" as="geometry" />
        </mxCell>
        <mxCell id="HknMEqGt49eJzjjqw019-9" value="" style="endArrow=none;html=1;rounded=0;entryX=0.567;entryY=1.001;entryDx=0;entryDy=0;entryPerimeter=0;" parent="1" target="td2TFSnO3F3tmxSQG4Zr-12" edge="1">
          <mxGeometry width="50" height="50" relative="1" as="geometry">
            <mxPoint x="595" y="530" as="sourcePoint" />
            <mxPoint x="580" y="519" as="targetPoint" />
          </mxGeometry>
        </mxCell>
        <mxCell id="HknMEqGt49eJzjjqw019-10" value="" style="endArrow=none;html=1;rounded=0;exitX=0.928;exitY=0.778;exitDx=0;exitDy=0;exitPerimeter=0;" parent="1" source="td2TFSnO3F3tmxSQG4Zr-11" edge="1">
          <mxGeometry width="50" height="50" relative="1" as="geometry">
            <mxPoint x="736" y="406" as="sourcePoint" />
            <mxPoint x="777" y="410" as="targetPoint" />
          </mxGeometry>
        </mxCell>
        <mxCell id="HknMEqGt49eJzjjqw019-11" value="" style="endArrow=none;html=1;rounded=0;" parent="1" edge="1">
          <mxGeometry width="50" height="50" relative="1" as="geometry">
            <mxPoint x="750" y="445" as="sourcePoint" />
            <mxPoint x="779" y="409" as="targetPoint" />
          </mxGeometry>
        </mxCell>
        <mxCell id="HknMEqGt49eJzjjqw019-12" value="" style="endArrow=none;html=1;rounded=0;entryX=0.981;entryY=0.626;entryDx=0;entryDy=0;entryPerimeter=0;" parent="1" target="td2TFSnO3F3tmxSQG4Zr-10" edge="1">
          <mxGeometry width="50" height="50" relative="1" as="geometry">
            <mxPoint x="829" y="316" as="sourcePoint" />
            <mxPoint x="867" y="316" as="targetPoint" />
          </mxGeometry>
        </mxCell>
        <mxCell id="HknMEqGt49eJzjjqw019-13" value="" style="endArrow=none;html=1;rounded=0;" parent="1" edge="1">
          <mxGeometry width="50" height="50" relative="1" as="geometry">
            <mxPoint x="837" y="381" as="sourcePoint" />
            <mxPoint x="829" y="314" as="targetPoint" />
          </mxGeometry>
        </mxCell>
        <mxCell id="HknMEqGt49eJzjjqw019-14" value="" style="endArrow=none;html=1;rounded=0;" parent="1" edge="1">
          <mxGeometry width="50" height="50" relative="1" as="geometry">
            <mxPoint x="763" y="454" as="sourcePoint" />
            <mxPoint x="834" y="383" as="targetPoint" />
          </mxGeometry>
        </mxCell>
        <mxCell id="HknMEqGt49eJzjjqw019-15" value="" style="endArrow=none;html=1;rounded=0;" parent="1" edge="1">
          <mxGeometry width="50" height="50" relative="1" as="geometry">
            <mxPoint x="589" y="199" as="sourcePoint" />
            <mxPoint x="635" y="172" as="targetPoint" />
          </mxGeometry>
        </mxCell>
        <mxCell id="HknMEqGt49eJzjjqw019-16" value="" style="endArrow=none;html=1;rounded=0;" parent="1" edge="1">
          <mxGeometry width="50" height="50" relative="1" as="geometry">
            <mxPoint x="472" y="159" as="sourcePoint" />
            <mxPoint x="588" y="198" as="targetPoint" />
          </mxGeometry>
        </mxCell>
        <mxCell id="HknMEqGt49eJzjjqw019-18" value="" style="endArrow=none;dashed=1;html=1;dashPattern=1 3;strokeWidth=2;rounded=0;" parent="1" edge="1">
          <mxGeometry width="50" height="50" relative="1" as="geometry">
            <mxPoint x="361" y="38" as="sourcePoint" />
            <mxPoint x="469" y="13" as="targetPoint" />
          </mxGeometry>
        </mxCell>
        <mxCell id="HknMEqGt49eJzjjqw019-19" value="&amp;lt;&amp;lt;include&amp;gt;&amp;gt;" style="html=1;verticalAlign=bottom;endArrow=open;dashed=1;endSize=8;curved=0;rounded=0;entryX=0.02;entryY=0.35;entryDx=0;entryDy=0;entryPerimeter=0;" parent="1" target="td2TFSnO3F3tmxSQG4Zr-8" edge="1">
          <mxGeometry x="-0.8786" y="-2" relative="1" as="geometry">
            <mxPoint x="463" y="11" as="sourcePoint" />
            <mxPoint x="475" y="-8" as="targetPoint" />
            <mxPoint as="offset" />
          </mxGeometry>
        </mxCell>
      </root>
    </mxGraphModel>
  </diagram>
</mxfile>
